<?xml version="1.0" standalone="no"?>
<!DOCTYPE svg PUBLIC "-//W3C//DTD SVG 20010904//EN"
 "http://www.w3.org/TR/2001/REC-SVG-20010904/DTD/svg10.dtd">
<svg version="1.0" xmlns="http://www.w3.org/2000/svg"
 width="500.000000pt" height="500.000000pt" viewBox="0 0 500.000000 500.000000"
 preserveAspectRatio="xMidYMid meet">
<metadata>
Created by potrace 1.14, written by Peter Selinger 2001-2017
</metadata>
<g transform="translate(0.000000,500.000000) scale(0.100000,-0.100000)"
fill="#000000" stroke="none">
<path d="M2525 4341 c-248 -65 -311 -92 -446 -195 -74 -56 -100 -66 -178 -66
-55 0 -166 -23 -235 -47 -176 -63 -210 -230 -114 -547 19 -64 41 -98 66 -107
6 -2 23 -47 36 -99 14 -52 28 -105 32 -117 5 -17 1 -22 -18 -25 -33 -4 -38
-61 -7 -94 21 -22 22 -30 17 -140 -4 -79 -1 -136 8 -174 9 -42 12 -118 9 -286
-4 -217 -3 -235 21 -354 25 -115 37 -149 100 -261 7 -12 16 -25 22 -31 6 -6 8
-16 6 -22 -2 -6 4 -21 13 -31 30 -33 53 -73 53 -93 0 -10 4 -22 9 -28 9 -9 41
-191 41 -231 0 -16 -27 -34 -122 -81 -115 -57 -175 -80 -436 -162 -57 -17
-160 -61 -230 -96 -118 -58 -135 -71 -220 -157 -51 -52 -92 -99 -92 -105 0
-14 123 -119 235 -202 305 -224 656 -372 1021 -428 168 -26 184 -27 414 -26
221 1 348 16 554 68 416 106 793 321 1098 629 81 82 153 166 147 171 -2 1 -71
49 -153 107 -82 57 -188 132 -235 167 -47 34 -113 80 -146 102 -33 22 -73 52
-90 66 -16 14 -45 38 -63 53 -18 15 -67 38 -108 52 -70 22 -80 29 -118 78
l-41 54 -11 -40 c-7 -22 -19 -54 -28 -71 -9 -17 -16 -40 -16 -52 0 -19 1 -19
18 -2 10 10 22 26 25 36 4 9 11 15 16 11 5 -3 13 0 17 6 5 9 10 8 19 -4 6 -8
27 -17 46 -19 29 -2 34 -7 34 -28 0 -31 -12 -39 -345 -247 -310 -194 -470
-280 -595 -322 -134 -45 -260 -57 -260 -25 0 5 -4 15 -8 22 -5 7 -4 12 3 12 6
0 8 5 5 10 -4 6 5 10 21 10 15 0 24 3 21 6 -3 4 -2 15 4 25 8 16 6 21 -13 28
l-23 8 23 7 c12 4 20 12 17 17 -4 5 0 9 7 9 8 1 4 9 -9 19 -13 11 -23 22 -23
27 0 4 -8 13 -17 21 -10 8 -12 12 -5 8 7 -4 12 1 12 12 0 11 4 23 10 29 8 8
16 37 19 67 1 4 8 7 16 7 9 0 27 12 41 27 24 26 24 26 45 7 21 -19 21 -19 18
0 -3 13 3 20 16 22 11 2 36 6 55 9 19 3 42 8 50 12 18 8 26 10 43 12 8 1 7 4
-3 11 -12 8 -11 10 7 10 23 0 112 42 153 72 14 10 35 20 48 23 12 2 29 10 37
17 28 26 40 34 50 36 6 1 18 9 28 17 10 9 23 13 29 9 6 -4 8 -3 5 3 -4 6 0 16
8 23 8 7 15 10 15 6 0 -3 9 2 19 12 50 46 80 69 115 87 21 11 42 29 46 40 5
11 9 16 9 11 1 -12 71 60 71 74 0 6 12 29 27 51 15 23 27 55 27 75 1 19 4 34
9 34 4 0 7 9 7 19 0 10 6 21 13 24 7 2 13 18 14 33 3 42 24 114 34 114 4 0 10
-12 12 -27 3 -20 4 -15 6 15 1 32 -3 42 -15 42 -10 0 -14 6 -10 18 6 22 19
126 21 177 2 22 5 72 7 112 3 39 2 77 -2 84 -9 14 -2 39 10 39 5 0 29 -21 54
-47 37 -39 46 -44 46 -28 0 29 -36 84 -65 97 -29 13 -37 32 -31 75 3 30 24 69
39 71 4 1 21 9 37 17 16 8 49 18 73 21 l43 6 27 92 c49 163 60 246 54 406 -4
137 -8 155 -55 320 -27 96 -55 205 -61 243 -26 153 -50 178 -272 289 -180 89
-338 154 -445 182 -97 25 -172 20 -339 -23z m290 -103 c50 -12 91 -22 92 -23
2 -1 -13 -45 -32 -99 -19 -53 -35 -103 -35 -110 0 -8 34 -22 88 -36 323 -86
523 -207 596 -363 15 -33 25 -61 22 -64 -3 -3 -11 6 -17 20 -7 15 -17 24 -22
20 -6 -4 -8 0 -5 8 6 15 -9 43 -27 50 -5 2 -9 8 -7 12 1 5 -2 6 -7 3 -12 -8
-42 34 -34 47 4 6 0 8 -11 4 -12 -5 -19 0 -25 17 -20 50 -199 140 -423 211
-82 26 -148 52 -148 57 0 5 -8 7 -18 3 -11 -3 -32 1 -48 10 -16 8 -37 15 -46
15 -10 0 -18 3 -18 8 0 4 -12 8 -27 8 -16 1 -46 4 -68 7 -128 16 -162 20 -175
22 -20 3 -19 7 10 98 20 64 28 77 42 73 11 -2 15 0 11 7 -4 7 11 8 48 4 37 -4
48 -2 34 4 -16 7 -14 9 13 6 17 -2 32 1 32 6 0 13 96 1 205 -25z m400 -416
c-3 -3 -11 0 -18 7 -9 10 -8 11 6 5 10 -3 15 -9 12 -12z m60 -30 c-3 -3 -11 0
-18 7 -9 10 -8 11 6 5 10 -3 15 -9 12 -12z m-595 -186 c200 -42 319 -95 443
-197 36 -30 84 -67 107 -84 55 -39 114 -110 104 -126 -4 -8 -3 -9 4 -5 7 4 12
2 12 -3 0 -6 -5 -11 -11 -11 -5 0 -7 -5 -4 -10 4 -6 10 -8 14 -6 4 3 13 -4 20
-16 7 -11 8 -17 2 -13 -6 3 -11 2 -11 -4 0 -5 -3 -17 -7 -27 -5 -13 -3 -15 7
-9 10 6 10 4 2 -11 -6 -11 -7 -27 -1 -41 7 -18 7 -96 0 -110 -1 -1 -40 12 -88
29 -60 22 -98 43 -123 68 -20 20 -51 42 -70 50 -19 8 -37 16 -40 19 -14 16
-43 35 -36 24 9 -16 -17 -17 -43 -3 -10 5 -73 11 -139 14 -66 2 -130 9 -141
15 -27 15 -34 14 -59 -9 -14 -14 -22 -16 -23 -8 0 7 -4 4 -9 -7 -6 -14 -9 -15
-10 -5 0 9 -6 6 -15 -10 -15 -27 -21 -54 -6 -31 7 11 10 9 16 -8 4 -13 5 -25
2 -27 -9 -9 -106 -16 -131 -10 -23 6 -26 11 -26 51 0 33 -4 45 -15 45 -8 0
-15 -4 -15 -10 0 -16 -27 -12 -34 5 -3 8 -11 15 -18 15 -7 0 -18 10 -23 23
-10 22 -24 26 -95 28 -47 1 -110 18 -110 29 0 6 5 10 11 10 5 0 7 5 4 10 -3 6
-1 10 4 10 6 0 11 14 11 31 0 16 4 28 9 25 5 -4 15 7 23 24 7 16 17 30 23 30
17 0 32 33 29 63 -2 17 1 25 8 21 6 -4 9 11 8 42 -4 69 -2 74 19 74 11 0 22 9
26 19 7 24 43 48 81 54 55 10 199 -3 314 -27z m931 -359 c-8 -8 -11 -7 -11 4
0 20 13 34 18 19 3 -7 -1 -17 -7 -23z m15 -142 c-6 -17 -26 -12 -26 6 0 6 5 7
10 4 6 -3 10 -1 10 6 0 7 3 10 6 6 4 -3 4 -13 0 -22z m-1773 -52 c9 -25 15
-48 12 -51 -6 -6 -95 66 -95 77 0 14 13 21 40 21 22 0 28 -7 43 -47z m-52 -64
c50 -20 59 -27 55 -44 -2 -11 -12 -68 -22 -127 -10 -60 -21 -108 -24 -108 -3
1 -22 15 -43 33 -30 26 -40 43 -45 78 -9 59 -8 155 3 204 8 35 9 37 13 14 2
-22 14 -31 63 -50z m1195 -20 c11 -10 24 -19 29 -19 5 0 0 7 -11 15 -13 10
-15 14 -5 15 8 0 27 -13 43 -30 15 -16 33 -30 38 -30 6 0 10 -7 10 -16 0 -13
-3 -13 -24 3 -13 11 -42 25 -65 33 -22 7 -41 16 -41 20 0 4 -24 11 -53 14 -84
11 -95 29 -12 21 49 -4 76 -12 91 -26z m-402 -4 c8 -8 20 -15 27 -15 7 0 9 -3
6 -7 -4 -3 -1 -13 7 -22 21 -25 29 -71 12 -71 -8 0 -19 8 -25 17 -5 10 -12 15
-16 11 -7 -7 62 -88 76 -88 4 0 25 -11 45 -25 33 -23 43 -25 98 -18 34 4 76 6
94 5 29 -1 37 7 33 32 -1 5 10 6 24 4 14 -3 25 -2 25 2 0 7 25 14 99 27 l34 6
-7 -44 c-11 -69 -60 -165 -93 -182 -61 -31 -260 -27 -362 8 -94 32 -131 98
-146 261 -6 64 -5 78 10 94 22 24 38 25 59 5z m626 -5 c0 -5 -2 -10 -4 -10 -3
0 -8 5 -11 10 -3 6 -1 10 4 10 6 0 11 -4 11 -10z m-310 -16 c0 -2 -7 -4 -15
-4 -8 0 -15 4 -15 10 0 5 7 7 15 4 8 -4 15 -8 15 -10z m-445 -24 c4 -6 22 -72
40 -146 19 -75 35 -137 37 -139 35 -32 101 -74 109 -69 6 3 17 -3 25 -15 15
-21 82 -32 69 -11 -3 6 45 9 127 7 112 -1 139 2 171 17 46 23 88 90 113 184
13 49 23 66 40 73 31 11 150 7 164 -7 12 -12 29 -182 19 -186 -4 -2 -10 -25
-13 -53 -7 -77 -26 -179 -34 -185 -9 -7 -42 -103 -42 -124 0 -9 -6 -16 -12
-17 -10 0 -10 -2 0 -6 17 -7 15 -23 -3 -23 -11 0 -14 -7 -10 -27 3 -16 2 -22
-1 -15 -3 6 -9 10 -14 7 -4 -3 -6 5 -3 17 4 19 3 20 -6 8 -8 -11 -11 -12 -11
-2 0 7 -5 10 -11 6 -6 -3 -8 -17 -4 -31 4 -18 2 -23 -6 -17 -9 5 -10 2 -6 -9
3 -9 2 -30 -3 -46 -8 -30 3 -45 13 -18 4 9 6 9 6 0 1 -6 -3 -14 -9 -18 -5 -3
-7 -12 -3 -20 3 -9 0 -21 -6 -29 -6 -7 -7 -16 -3 -21 4 -4 -3 -4 -15 -1 -15 5
-23 3 -23 -4 0 -6 4 -9 9 -6 13 9 21 -19 9 -35 -8 -11 -9 -10 -4 4 3 9 3 17
-1 17 -11 0 -32 -35 -33 -52 0 -10 -5 -18 -11 -18 -6 0 -9 -7 -5 -15 3 -9 -2
-24 -12 -34 -9 -10 -25 -30 -36 -44 -10 -15 -22 -24 -27 -21 -5 2 -16 -4 -26
-16 l-18 -21 -7 23 -6 23 -1 -22 c-1 -13 -5 -24 -11 -24 -5 -1 -16 -2 -22 -3
-7 -1 -12 -8 -10 -16 2 -8 0 -12 -4 -7 -4 4 -13 -6 -20 -23 -7 -16 -18 -30
-23 -30 -11 0 4 45 21 65 11 13 10 27 -2 20 -16 -10 -11 1 7 16 11 9 14 10 9
2 -5 -9 -2 -11 9 -6 10 3 12 8 6 12 -5 4 -8 19 -7 34 2 15 0 30 -5 33 -4 2 -5
12 -2 22 3 9 3 14 -2 10 -4 -4 -13 -4 -19 1 -8 6 -12 -5 -13 -36 -1 -25 -6
-50 -11 -56 -5 -7 -12 -21 -16 -31 -6 -17 -4 -17 11 -5 17 13 17 13 1 -7 -10
-11 -18 -26 -18 -32 0 -6 -4 -13 -9 -16 -5 -4 -7 4 -4 16 4 20 3 21 -7 5 -6
-10 -16 -14 -23 -10 -7 4 -5 -2 3 -12 8 -10 10 -16 4 -12 -7 4 -17 0 -24 -8
-14 -17 -40 -20 -40 -4 0 5 -4 8 -9 5 -5 -4 -11 -1 -13 5 -3 8 -10 6 -20 -5
-9 -9 -21 -16 -25 -15 -4 1 -11 0 -15 -1 -5 -1 -12 -4 -18 -5 -5 -1 -11 -3
-12 -4 -14 -12 -50 -8 -55 5 -4 12 -8 13 -14 3 -4 -7 -15 -14 -24 -15 -13 -2
-14 0 -4 12 9 11 8 14 -5 14 -9 0 -16 -5 -16 -11 0 -5 -4 -8 -9 -4 -5 3 -12 1
-16 -5 -9 -15 -25 -12 -19 3 3 8 -2 14 -10 14 -9 0 -18 -9 -22 -19 -3 -12 -12
-17 -20 -14 -8 3 -14 1 -14 -4 0 -6 -5 -10 -10 -10 -7 0 -9 15 -5 38 3 20 2
31 -1 25 -8 -18 -24 -16 -24 2 0 13 -3 13 -20 3 -11 -7 -20 -21 -20 -30 0 -10
-3 -17 -7 -17 -5 1 -10 0 -13 -1 -19 -7 -39 -7 -34 1 3 5 0 9 -5 9 -6 0 -11 7
-11 15 0 8 -6 15 -14 15 -8 0 -16 13 -18 29 -3 22 -1 28 11 25 9 -2 5 1 -9 8
-29 15 -37 37 -18 49 9 6 8 9 -5 14 -15 6 -14 10 8 39 14 18 25 40 25 50 0 18
46 40 95 46 23 2 44 28 50 62 6 32 4 37 -17 43 -12 5 -27 14 -33 20 -8 11 -19
11 -57 1 -40 -11 -48 -11 -48 1 0 7 -3 13 -8 13 -4 0 -13 9 -20 21 -8 12 -9
18 -4 15 6 -3 12 -1 14 4 2 6 25 14 52 18 48 7 49 8 32 25 -22 21 -16 31 14
22 15 -5 19 -12 15 -25 -6 -19 -3 -19 68 -11 4 1 7 8 7 16 0 11 12 15 49 15
58 0 111 -17 111 -36 0 -10 14 -14 55 -14 32 0 57 -5 62 -12 9 -14 48 -38 60
-38 5 0 14 9 21 21 11 17 10 27 -5 59 -10 22 -24 40 -30 40 -7 0 -13 7 -13 15
0 8 -3 14 -7 13 -5 -1 -19 3 -33 9 -75 31 -93 22 -42 -22 15 -13 24 -26 21
-29 -15 -15 -54 -14 -88 1 -22 10 -67 17 -116 18 -128 3 -131 3 -117 17 18 18
15 25 -13 32 -13 3 -36 11 -50 16 -22 8 -24 12 -13 24 8 7 23 16 35 20 24 8
40 39 23 44 -7 3 -2 10 9 19 12 8 21 21 21 28 0 8 11 22 25 31 33 21 32 34 -6
70 -17 16 -37 41 -45 56 -25 48 -15 122 21 153 10 9 23 53 40 142 9 43 55 78
70 53z m665 -15 c0 -8 -2 -15 -4 -15 -2 0 -6 7 -10 15 -3 8 -1 15 4 15 6 0 10
-7 10 -15z m-234 -129 c18 -14 17 -14 -9 -12 -16 2 -33 8 -40 15 -17 17 25 14
49 -3z m-946 -190 c0 -3 -4 -8 -10 -11 -5 -3 -10 -1 -10 4 0 6 5 11 10 11 6 0
10 -2 10 -4z m52 -50 c4 3 11 -4 18 -15 6 -12 17 -21 24 -21 18 0 32 -88 17
-103 -9 -9 -16 -9 -29 0 -13 8 -23 7 -44 -5 -16 -9 -28 -20 -28 -25 0 -4 -9
-3 -20 3 -17 9 -20 18 -16 63 3 29 8 60 11 69 4 9 2 19 -4 23 -18 11 -12 35 9
35 11 0 20 6 20 13 0 6 8 0 18 -16 10 -15 21 -24 24 -21z m79 -153 c-12 -20
-14 -14 -5 12 4 9 9 14 11 11 3 -2 0 -13 -6 -23z m-21 -186 c0 -34 -52 -107
-77 -108 -5 0 -13 -5 -19 -10 -8 -7 -13 -2 -16 15 -5 27 7 46 30 46 7 0 10 5
7 10 -3 6 -1 10 4 10 6 0 11 6 11 14 0 15 41 46 53 39 4 -2 7 -10 7 -16z m680
-28 c0 -5 -4 -9 -10 -9 -5 0 -10 7 -10 16 0 8 5 12 10 9 6 -3 10 -10 10 -16z
m-522 -161 c-5 -18 -12 -41 -15 -50 -3 -10 -9 -18 -15 -18 -5 0 -4 9 2 20 6
11 8 20 5 20 -3 0 1 14 10 30 20 39 26 38 13 -2z m-3 -78 c-3 -5 -12 -10 -18
-10 -7 0 -6 4 3 10 19 12 23 12 15 0z m560 -280 c3 -5 1 -10 -4 -10 -6 0 -11
5 -11 10 0 6 2 10 4 10 3 0 8 -4 11 -10z m883 -399 c-7 -9 -14 -18 -17 -21 -2
-3 -1 7 3 23 3 15 2 27 -3 27 -5 0 -11 -8 -14 -17 -2 -10 -4 -4 -4 13 l0 31
23 -20 c19 -17 21 -23 12 -36z m-84 24 c9 -14 12 -25 6 -25 -5 0 -10 5 -10 10
0 6 -8 10 -19 10 -10 0 -24 7 -31 15 -11 13 -9 15 13 15 15 0 31 -9 41 -25z
m433 -102 c-4 -3 -1 -13 6 -22 11 -14 10 -14 -5 -2 -21 15 -23 31 -6 31 6 0 8
-3 5 -7z m-1680 -109 c-3 -3 -12 -4 -19 -1 -8 3 -5 6 6 6 11 1 17 -2 13 -5z
m1426 -147 c7 -19 -8 -43 -17 -28 -4 6 -2 11 5 11 7 0 9 3 5 7 -12 12 -40 12
-56 0 -13 -11 -13 -10 -1 6 16 20 57 23 64 4z m-89 -42 c-5 -21 -3 -25 15 -25
12 0 21 -4 21 -10 0 -5 -7 -7 -15 -4 -8 4 -23 3 -32 -1 -10 -5 -24 -9 -30 -11
-32 -6 -62 -62 -41 -76 10 -7 9 -8 -2 -5 -35 10 14 97 54 97 8 0 16 14 20 30
3 17 8 30 11 30 3 0 3 -11 -1 -25z m-1080 -96 c-6 -11 -24 -2 -24 11 0 5 7 7
15 4 8 -4 12 -10 9 -15z m-1346 -40 c-9 -6 -14 -3 -16 8 -2 8 2 19 10 24 9 6
14 3 16 -8 2 -8 -2 -19 -10 -24z m1745 -296 c-7 -2 -19 -2 -25 0 -7 3 -2 5 12
5 14 0 19 -2 13 -5z m-60 -18 c-3 -9 -8 -14 -10 -11 -3 3 -2 9 2 15 9 16 15
13 8 -4z m4 -47 c-3 -8 -6 -5 -6 6 -1 11 2 17 5 13 3 -3 4 -12 1 -19z m153
-28 c12 -9 9 -16 -22 -45 -21 -19 -43 -35 -50 -35 -7 0 2 9 20 20 20 12 30 25
26 32 -4 6 -3 8 4 4 6 -3 13 -2 17 3 3 5 -3 14 -12 20 -10 6 -13 10 -8 11 6 0
17 -5 25 -10z m-100 -20 c-8 -5 -19 -10 -25 -10 -5 0 -3 5 5 10 8 5 20 10 25
10 6 0 3 -5 -5 -10z m-45 -35 c0 -27 -10 -33 -18 -11 -4 10 9 36 18 36 0 0 0
-11 0 -25z m45 -25 c0 -5 -7 -10 -15 -10 -8 0 -15 5 -15 10 0 6 7 10 15 10 8
0 15 -4 15 -10z"/>
<path d="M2510 4200 c-17 -10 -13 -12 60 -27 l45 -10 -65 -32 c-67 -33 -63
-33 30 1 45 17 60 18 80 9 42 -20 69 -37 98 -62 l27 -24 -27 31 c-16 16 -28
35 -28 42 0 6 -8 16 -17 21 -17 10 -17 10 0 11 10 0 27 -5 39 -11 27 -14 63
-4 65 18 1 16 -6 18 -57 17 -32 -1 -63 -5 -68 -8 -6 -3 -30 3 -53 14 -47 21
-105 26 -129 10z m283 -37 c-7 -2 -21 -2 -30 0 -10 3 -4 5 12 5 17 0 24 -2 18
-5z"/>
<path d="M2548 4093 c6 -2 18 -2 25 0 6 3 1 5 -13 5 -14 0 -19 -2 -12 -5z"/>
<path d="M2530 2891 c0 -6 4 -13 10 -16 6 -3 7 1 4 9 -7 18 -14 21 -14 7z"/>
<path d="M2541 2804 c0 -11 3 -14 6 -6 3 7 2 16 -1 19 -3 4 -6 -2 -5 -13z"/>
<path d="M2555 2755 c3 -16 11 -34 16 -39 15 -16 11 9 -7 40 l-16 29 7 -30z"/>
<path d="M2450 2515 c-11 -13 -10 -14 2 -10 8 3 31 -9 53 -30 49 -44 80 -48
71 -7 -4 15 -16 35 -28 45 -25 21 -81 22 -98 2z"/>
<path d="M2420 2410 c0 -5 -6 -10 -14 -10 -19 0 -26 -22 -19 -64 6 -40 21 -45
47 -17 14 16 15 23 6 41 -7 12 -10 31 -7 41 3 10 1 19 -4 19 -5 0 -9 -4 -9
-10z"/>
<path d="M2450 2378 c0 -16 5 -28 10 -28 13 0 13 20 0 40 -8 12 -10 9 -10 -12z"/>
<path d="M2491 2351 c-10 -6 -10 -10 -1 -16 13 -8 24 -1 19 14 -3 6 -10 7 -18
2z"/>
<path d="M2517 2336 c-9 -23 4 -55 21 -55 23 0 45 -5 60 -15 11 -7 12 -4 4 10
-6 11 -18 28 -27 39 -14 17 -16 17 -11 3 3 -10 1 -18 -4 -18 -6 0 -10 6 -10
14 0 22 -26 40 -33 22z"/>
<path d="M2951 1894 c0 -11 3 -14 6 -6 3 7 2 16 -1 19 -3 4 -6 -2 -5 -13z"/>
<path d="M2956 1845 c-3 -8 -1 -15 4 -15 6 0 10 7 10 15 0 8 -2 15 -4 15 -2 0
-6 -7 -10 -15z"/>
<path d="M3564 2769 c-4 -6 7 -22 25 -36 31 -24 31 -25 25 -91 -5 -47 -3 -64
4 -57 14 13 39 115 34 138 -5 23 -78 61 -88 46z"/>
</g>
</svg>
